<svg width="48" height="65" viewBox="0 0 48 65" fill="none" xmlns="http://www.w3.org/2000/svg">
<path d="M30.2891 25.6113H21.9355V34.4023H19.3105V14.4961H31.6426V16.6562H21.9355V23.4648H30.2891V25.6113Z" fill="white"/>
<path d="M47.9286 24.2007C47.9286 37.5664 37.1994 48.4014 23.9643 48.4014C10.7292 48.4014 0 37.5664 0 24.2007C0 10.835 10.7292 0 23.9643 0C37.1994 0 47.9286 10.835 47.9286 24.2007ZM2.79373 24.2007C2.79373 36.0082 12.2721 45.5801 23.9643 45.5801C35.6565 45.5801 45.1348 36.0082 45.1348 24.2007C45.1348 12.3932 35.6565 2.82129 23.9643 2.82129C12.2721 2.82129 2.79373 12.3932 2.79373 24.2007Z" fill="white"/>
<line x1="24" y1="47.4023" x2="24" y2="63.4023" stroke="white" stroke-width="2" stroke-linecap="round"/>
<line x1="16" y1="56.4023" x2="32" y2="56.4023" stroke="white" stroke-width="2" stroke-linecap="round"/>
</svg>
