<svg width="57" height="73" viewBox="0 0 57 73" fill="none" xmlns="http://www.w3.org/2000/svg">
<path d="M31.3242 24.0938V37.6289C31.3151 39.5065 30.7227 41.0423 29.5469 42.2363C28.3802 43.4303 26.7943 44.1003 24.7891 44.2461L24.0918 44.2734C21.9134 44.2734 20.1771 43.6855 18.8828 42.5098C17.5885 41.334 16.9323 39.7161 16.9141 37.6562V24.0938H19.5117V37.5742C19.5117 39.0143 19.9082 40.1354 20.7012 40.9375C21.4941 41.7305 22.6243 42.127 24.0918 42.127C25.5775 42.127 26.7122 41.7305 27.4961 40.9375C28.2891 40.1445 28.6855 39.028 28.6855 37.5879V24.0938H31.3242Z" fill="#ed0c6d"/>
<path d="M47.9286 32.7984C47.9286 46.1641 37.1994 56.9991 23.9643 56.9991C10.7292 56.9991 0 46.1641 0 32.7984C0 19.4327 10.7292 8.59766 23.9643 8.59766C37.1994 8.59766 47.9286 19.4327 47.9286 32.7984ZM2.79373 32.7984C2.79373 44.6059 12.2721 54.1778 23.9643 54.1778C35.6565 54.1778 45.1348 44.6059 45.1348 32.7984C45.1348 20.9908 35.6565 11.4189 23.9643 11.4189C12.2721 11.4189 2.79373 20.9908 2.79373 32.7984Z" fill="#ed0c6d"/>
<path d="M56.2148 0.999999C56.2148 0.447714 55.7671 -8.49352e-07 55.2148 -8.26075e-07L46.2148 -4.46753e-07C45.6626 -4.23476e-07 45.2148 0.447715 45.2148 1C45.2148 1.55228 45.6626 2 46.2148 2L54.2148 2L54.2148 10C54.2148 10.5523 54.6626 11 55.2148 11C55.7671 11 56.2148 10.5523 56.2148 10L56.2148 0.999999ZM39.922 17.7071L55.922 1.70711L54.5077 0.292892L38.5077 16.2929L39.922 17.7071Z" fill="#ed0c6d"/>
<line x1="24" y1="56" x2="24" y2="72" stroke="#ed0c6d" stroke-width="2" stroke-linecap="round"/>
<line x1="16" y1="65" x2="32" y2="65" stroke="#ed0c6d" stroke-width="2" stroke-linecap="round"/>
</svg>
