<svg width="31" height="25" viewBox="0 0 31 25" fill="none" xmlns="http://www.w3.org/2000/svg">
<path d="M23.133 22.709C23.133 23.9743 22.256 24.9997 21.1743 24.9997H9.56948C8.4878 24.9997 7.61075 23.9743 7.61075 22.709L5.16992 15.2666C5.16992 14.002 6.04641 12.9766 7.12865 12.9766H23.6151C24.6974 12.9766 25.5739 14.002 25.5739 15.2666L23.133 22.709Z" fill="#F6E568"/>
<path d="M11.6049 20.5746C12.0819 21.5913 11.764 22.8674 10.8944 23.4248C10.0247 23.9829 8.93327 23.6109 8.45649 22.5949L2.32137 9.19565C1.84435 8.1789 2.16223 6.90282 3.03188 6.3454C3.9009 5.78732 4.99236 6.15934 5.46977 7.17535L11.6049 20.5746Z" fill="#F6E568"/>
<path d="M19.1322 20.5746C18.6549 21.5913 18.9725 22.8674 19.8421 23.4248C20.7111 23.9829 21.8032 23.6109 22.28 22.5949L28.4152 9.19565C28.8922 8.1789 28.5743 6.90282 27.7046 6.3454C26.8356 5.78732 25.7442 6.15934 25.2668 7.17535L19.1322 20.5746Z" fill="#F6E568"/>
<path d="M17.3727 20.5647C17.3768 21.7246 16.5769 22.6687 15.5853 22.6739C14.5932 22.6795 13.7857 21.7441 13.7812 20.5841L13.8562 5.38656C13.8514 4.22662 14.652 3.28258 15.6436 3.27737C16.6352 3.27179 17.4426 4.20718 17.4476 5.36648L17.3727 20.5647Z" fill="#F6E568"/>
<path d="M4.64648 6.29712C4.64648 6.29712 10.1423 10.2736 14.2775 4.03906L13.9783 13.2312L8.21003 13.9944L4.64648 6.29712Z" fill="#F6E568"/>
<path d="M26.1989 6.23247C26.1989 6.23247 21.3021 10.5267 17.1664 4.29297L16.9492 13.3891L22.7168 14.1523L26.1989 6.23247Z" fill="#F6E568"/>
<path d="M2.47559 8.9996C3.84281 8.9996 4.95117 7.70376 4.95117 6.10527C4.95117 4.50677 3.84281 3.21094 2.47559 3.21094C1.10836 3.21094 0 4.50677 0 6.10527C0 7.70376 1.10836 8.9996 2.47559 8.9996Z" fill="#F6E568"/>
<path d="M15.5615 5.78866C16.9288 5.78866 18.0371 4.49283 18.0371 2.89433C18.0371 1.29584 16.9288 0 15.5615 0C14.1943 0 13.0859 1.29584 13.0859 2.89433C13.0859 4.49283 14.1943 5.78866 15.5615 5.78866Z" fill="#F6E568"/>
<path d="M28.208 8.93319C29.5752 8.93319 30.6836 7.63736 30.6836 6.03886C30.6836 4.44037 29.5752 3.14453 28.208 3.14453C26.8408 3.14453 25.7324 4.44037 25.7324 6.03886C25.7324 7.63736 26.8408 8.93319 28.208 8.93319Z" fill="#F6E568"/>
</svg>
