<svg width="57" height="57" viewBox="0 0 57 57" fill="none" xmlns="http://www.w3.org/2000/svg">
<path d="M16.7012 22.0938L23.209 38.3359L29.7168 22.0938H33.1211V42H30.4961V34.248L30.7422 25.8809L24.207 42H22.1973L15.6758 25.9219L15.9355 34.248V42H13.3105V22.0938H16.7012Z" fill="#ed0c6d"/>
<path d="M47.9286 32.7984C47.9286 46.1641 37.1994 56.9991 23.9643 56.9991C10.7292 56.9991 0 46.1641 0 32.7984C0 19.4327 10.7292 8.59766 23.9643 8.59766C37.1994 8.59766 47.9286 19.4327 47.9286 32.7984ZM2.79373 32.7984C2.79373 44.6059 12.2721 54.1778 23.9643 54.1778C35.6565 54.1778 45.1348 44.6059 45.1348 32.7984C45.1348 20.9908 35.6565 11.4189 23.9643 11.4189C12.2721 11.4189 2.79373 20.9908 2.79373 32.7984Z" fill="#ed0c6d"/>
<path d="M56.2148 0.999999C56.2148 0.447714 55.7671 -8.49352e-07 55.2148 -8.26075e-07L46.2148 -4.46753e-07C45.6626 -4.23476e-07 45.2148 0.447715 45.2148 1C45.2148 1.55228 45.6626 2 46.2148 2L54.2148 2L54.2148 10C54.2148 10.5523 54.6626 11 55.2148 11C55.7671 11 56.2148 10.5523 56.2148 10L56.2148 0.999999ZM39.922 17.7071L55.922 1.70711L54.5077 0.292892L38.5077 16.2929L39.922 17.7071Z" fill="#ed0c6d"/>
</svg>
